<svg width="50" height="35" viewBox="0 0 50 35" fill="none" xmlns="http://www.w3.org/2000/svg">
<path fill-rule="evenodd" clip-rule="evenodd" d="M0 3.00323V31.3161C0 32.8564 1.12742 34.1048 2.68065 34.1048H46.8677C48.4194 34.1048 49.5484 32.8419 49.5484 31.3161V3.00323C49.5484 1.3129 48.5387 0 46.8677 0H2.68065C0.945162 0 0 1.34516 0 3.00323ZM4.07419 5.46935C4.07419 4.7871 4.4871 4.39677 5.14677 4.39677C5.55484 4.39677 21.6113 14.571 22.5839 15.1677L25.0968 16.7306C25.8936 16.1968 26.6935 15.7403 27.5194 15.1871C29.2048 14.1097 44.2016 4.39677 44.6145 4.39677C45.2758 4.39677 45.6871 4.7871 45.6871 5.46935C45.6871 6.19193 44.2952 6.90968 43.3887 7.4629C37.6936 10.9339 32 14.7177 26.3613 18.3177C26.0323 18.5403 25.3952 19.0161 24.9177 18.9435C24.3855 18.8613 8.04677 8.36452 5.07419 6.61613C4.62742 6.35323 4.07419 6.1129 4.07419 5.46935Z" fill="white"/>
</svg>
